<svg width="24" height="24" viewBox="0 0 24 24" fill="none" xmlns="http://www.w3.org/2000/svg">
<path d="M6.51562 3C7.67188 3 8.75 3.28906 9.75 3.86719C10.75 4.44531 11.5391 5.23438 12.1172 6.23438C12.6953 7.23438 12.9844 8.32812 12.9844 9.51562C12.9844 11.1094 12.4688 12.5156 11.4375 13.7344L11.7188 14.0156H12.5156L17.4844 18.9844L15.9844 20.4844L11.0156 15.5156V14.7188L10.7344 14.4375C9.51562 15.4688 8.10938 15.9844 6.51562 15.9844C5.32812 15.9844 4.23438 15.6953 3.23438 15.1172C2.23438 14.5391 1.44531 13.75 0.867188 12.75C0.289062 11.75 0 10.6641 0 9.49219C0 8.32031 0.289062 7.23438 0.867188 6.23438C1.44531 5.23438 2.23438 4.44531 3.23438 3.86719C4.23438 3.28906 5.32812 3 6.51562 3ZM6.51562 5.01562C5.26562 5.01562 4.20312 5.45312 3.32812 6.32812C2.45312 7.20312 2.01562 8.26562 2.01562 9.51562C2.01562 10.7656 2.45312 11.8281 3.32812 12.7031C4.20312 13.5781 5.26562 14.0156 6.51562 14.0156C7.76562 14.0156 8.82812 13.5781 9.70312 12.7031C10.5781 11.8281 11.0156 10.7656 11.0156 9.51562C11.0156 8.26562 10.5781 7.20312 9.70312 6.32812C8.82812 5.45312 7.76562 5.01562 6.51562 5.01562Z" fill="black" fill-opacity="0.54"/>
</svg>
